# Blender v2.79 (sub 0) OBJ File: ''
# www.blender.org
mtllib roadV2.mtl
o Mesh1_Model
v 0.000000 0.078060 -5.495990
v 0.000000 0.078060 -2.073840
v 0.000000 -0.010000 -2.073840
v 0.000000 -0.010000 -5.495990
v 0.128621 0.078060 -5.495990
v 0.128621 0.078060 -2.073840
v 0.138822 -0.010000 -5.495990
v 0.138822 -0.001194 -5.495990
v 0.138822 0.067859 -5.495990
v 0.138735 0.069190 -5.495990
v 0.138475 0.070499 -5.495990
v 0.138046 0.071763 -5.495990
v 0.137456 0.072959 -5.495990
v 0.136714 0.074069 -5.495990
v 0.135834 0.075072 -5.495990
v 0.134831 0.075952 -5.495990
v 0.133722 0.076693 -5.495990
v 0.132525 0.077284 -5.495990
v 0.131261 0.077713 -5.495990
v 0.129952 0.077973 -5.495990
v 0.138822 -0.010000 -2.073840
v 2.059990 -0.010000 -2.073840
v 2.200890 -0.010000 -2.073840
v 2.201500 -0.010000 -5.495990
v 2.059670 -0.010000 -5.495990
v 0.138822 0.067858 -2.073840
v 0.138822 -0.001194 -2.073840
v 0.129952 0.077973 -2.073840
v 0.131261 0.077712 -2.073840
v 0.132525 0.077283 -2.073840
v 0.133722 0.076693 -2.073840
v 0.134831 0.075952 -2.073840
v 0.135834 0.075072 -2.073840
v 0.136714 0.074069 -2.073840
v 0.137456 0.072959 -2.073840
v 0.138046 0.071762 -2.073840
v 0.138475 0.070499 -2.073840
v 0.138735 0.069190 -2.073840
v 2.059670 -0.001194 -5.495990
v 2.059990 -0.001194 -2.073840
v 2.059670 0.057458 -5.495990
v 2.201500 0.069254 -5.495990
v 2.071460 0.069254 -5.495990
v 2.069920 0.069153 -5.495990
v 2.068410 0.068852 -5.495990
v 2.066950 0.068356 -5.495990
v 2.065570 0.067674 -5.495990
v 2.064280 0.066817 -5.495990
v 2.063120 0.065799 -5.495990
v 2.062110 0.064639 -5.495990
v 2.061250 0.063356 -5.495990
v 2.060570 0.061972 -5.495990
v 2.060070 0.060511 -5.495990
v 2.059770 0.058998 -5.495990
v 2.059990 0.057458 -2.073840
v 2.200890 0.069254 -2.073840
v 2.201500 0.069254 -2.073840
v 2.059670 0.057458 -2.073840
v 2.059770 0.058998 -2.073840
v 2.059990 0.060127 -2.073840
v 2.060070 0.060511 -2.073840
v 2.060570 0.061972 -2.073840
v 2.061250 0.063356 -2.073840
v 2.062110 0.064639 -2.073840
v 2.063120 0.065799 -2.073840
v 2.064280 0.066816 -2.073840
v 2.065570 0.067674 -2.073840
v 2.066950 0.068356 -2.073840
v 2.068410 0.068852 -2.073840
v 2.069920 0.069153 -2.073840
v 2.071460 0.069254 -2.073840
vt 216.378006 3.073230
vt 81.647202 3.073230
vt 81.647202 -0.393701
vt 216.378006 -0.393701
vt 0.000000 216.378006
vt -5.063810 216.378006
vt -5.063810 81.647202
vt 0.000000 81.647202
vt -0.000000 -0.393701
vt 5.465450 -0.393701
vt 5.465450 -0.047008
vt 5.465450 2.671590
vt 5.462010 2.724010
vt 5.451760 2.775540
vt 5.434880 2.825290
vt 5.411640 2.872410
vt 5.382450 2.916090
vt 5.347810 2.955590
vt 5.308310 2.990230
vt 5.264630 3.019420
vt 5.217510 3.042660
vt 5.167760 3.059540
vt 5.116240 3.069790
vt 5.063810 3.073230
vt -0.000000 3.073230
vt -0.000000 216.378006
vt -0.000000 81.647202
vt 5.465450 81.647202
vt 81.102097 81.647202
vt 86.649200 81.647202
vt 86.673203 216.378006
vt 81.089302 216.378006
vt 5.465450 216.378006
vt -5.465450 2.671590
vt -5.465450 -0.047008
vt -5.465450 -0.393701
vt 0.000000 -0.393701
vt 0.000000 3.073230
vt -5.063810 3.073230
vt -5.116240 3.069790
vt -5.167760 3.059540
vt -5.217510 3.042660
vt -5.264630 3.019420
vt -5.308310 2.990230
vt -5.347810 2.955590
vt -5.382450 2.916090
vt -5.411640 2.872410
vt -5.434880 2.825290
vt -5.451760 2.775540
vt -5.462010 2.724010
vt -81.647202 2.671590
vt -216.378006 2.671590
vt -216.378006 -0.047008
vt -81.647202 -0.047008
vt -81.647202 2.308410
vt -81.647202 2.360950
vt -216.378006 2.360950
vt -216.378006 2.308410
vt -81.647202 1.606090
vt -81.647202 1.658620
vt -216.378006 1.658620
vt -216.378006 1.606090
vt -81.647202 0.875832
vt -81.647202 0.928369
vt -216.378006 0.928369
vt -216.378006 0.875832
vt -81.647202 0.130141
vt -81.647202 0.182678
vt -216.378006 0.182678
vt -216.378006 0.130141
vt -81.647202 -0.618226
vt -81.647202 -0.565689
vt -216.378006 -0.565689
vt -216.378006 -0.618226
vt -81.647202 -1.356460
vt -81.647202 -1.303930
vt -216.378006 -1.303930
vt -216.378006 -1.356460
vt -81.647202 -2.071940
vt -81.647202 -2.019410
vt -216.378006 -2.019410
vt -216.378006 -2.071940
vt -81.647202 -2.752420
vt -81.647202 -2.699880
vt -216.378006 -2.699880
vt -216.378006 -2.752420
vt -81.647202 -3.386250
vt -81.647202 -3.333710
vt -216.378006 -3.333710
vt -216.378006 -3.386250
vt -81.647202 -3.962590
vt -81.647202 -3.910050
vt -216.378006 -3.910050
vt -216.378006 -3.962590
vt -81.647202 -4.471580
vt -81.647202 -4.419040
vt -216.378006 -4.419040
vt -216.378006 -4.471580
vt -81.647202 -4.904510
vt -81.647202 -4.851970
vt -216.378006 -4.851970
vt -216.378006 -4.904510
vt -5.465450 216.378006
vt -81.089302 216.378006
vt -81.102097 81.647202
vt -5.465450 81.647202
vt 81.089302 -0.047008
vt 81.089302 -0.393701
vt 81.089302 2.262130
vt 86.673203 -0.393701
vt 86.673203 2.726540
vt 81.553703 2.726540
vt 81.493103 2.722560
vt 81.433502 2.710710
vt 81.375999 2.691180
vt 81.321503 2.664320
vt 81.271004 2.630570
vt 81.225304 2.590510
vt 81.185303 2.544840
vt 81.151497 2.494330
vt 81.124603 2.439850
vt 81.105103 2.382320
vt 81.093300 2.322740
vt 81.639503 -0.047008
vt 216.369995 -0.047008
vt 216.369995 2.262130
vt 81.639503 2.262130
vt -81.662598 -0.393701
vt -81.662598 2.726540
vt -216.393005 2.726540
vt -216.393005 -0.393701
vt -86.649200 -0.393701
vt -86.649200 2.726540
vt -86.673203 2.726540
vt -81.102097 -0.393701
vt -81.102097 -0.047008
vt -81.089302 2.262130
vt -81.093300 2.322740
vt -81.102097 2.367220
vt -81.105103 2.382320
vt -81.124603 2.439850
vt -81.151497 2.494330
vt -81.185303 2.544840
vt -81.225304 2.590510
vt -81.271004 2.630570
vt -81.321503 2.664320
vt -81.375999 2.691180
vt -81.433502 2.710710
vt -81.493103 2.722560
vt -81.553703 2.726540
vt 216.378006 7.560780
vt 216.378006 7.621520
vt 81.647202 7.621520
vt 81.647202 7.560780
vt 216.378006 18.098600
vt 216.378006 18.159401
vt 81.647202 18.159401
vt 81.647202 18.143999
vt 81.647202 18.098600
vt 216.378006 28.326300
vt 216.378006 28.386999
vt 81.647202 28.386999
vt 81.647202 28.326300
vt 216.378006 38.068699
vt 216.378006 38.129501
vt 81.647202 38.129501
vt 81.647202 38.068699
vt 216.378006 47.159302
vt 216.378006 47.220100
vt 81.647202 47.220100
vt 81.647202 47.159302
vt 216.378006 55.442501
vt 216.378006 55.503201
vt 81.647202 55.503201
vt 81.647202 55.442501
vt 216.378006 62.776501
vt 216.378006 62.837200
vt 81.647202 62.837200
vt 81.647202 62.776501
vt 216.378006 69.035797
vt 216.378006 69.096603
vt 81.647202 69.096603
vt 81.647202 69.035797
vt 216.378006 74.113403
vt 216.378006 74.174202
vt 81.647202 74.174202
vt 81.647202 74.113403
vt 216.378006 77.922401
vt 216.378006 77.983200
vt 81.647202 77.983200
vt 81.647202 77.922401
vt 216.378006 80.397598
vt 216.378006 80.458397
vt 81.647202 80.458397
vt 81.647202 80.397598
vt 216.378006 81.496696
vt 216.378006 81.557404
vt 81.647202 81.557404
vt 81.647202 81.496696
vt -81.553703 216.378006
vt -86.673203 216.378006
vt -86.649200 81.647202
vt -81.553703 81.647202
vt -86.673203 81.647202
vn 1.0000 0.0000 0.0000
vn 0.0000 -1.0000 -0.0000
vn -0.0000 0.0000 1.0000
vn 0.0000 1.0000 0.0000
vn -0.0000 0.0000 -1.0000
vn -1.0000 0.0000 0.0000
vn -0.9979 -0.0652 -0.0000
vn -0.9915 -0.1303 -0.0000
vn -0.9660 -0.2587 -0.0000
vn -0.9239 -0.3826 -0.0000
vn -0.8660 -0.5001 -0.0000
vn -0.7932 -0.6090 -0.0000
vn -0.7071 -0.7071 -0.0000
vn -0.6089 -0.7932 -0.0000
vn -0.5001 -0.8660 -0.0000
vn -0.3826 -0.9239 -0.0000
vn -0.2588 -0.9659 -0.0000
vn -0.1305 -0.9914 -0.0000
vn -0.0654 -0.9979 -0.0000
vn 1.0000 0.0000 -0.0001
vn -1.0000 0.0000 -0.0002
vn 0.9979 -0.0648 -0.0000
vn 0.9914 -0.1306 0.0000
vn 0.9659 -0.2588 0.0000
vn 0.9808 -0.1951 0.0000
vn 0.9239 -0.3827 -0.0000
vn 0.8660 -0.5000 -0.0000
vn 0.7934 -0.6087 -0.0000
vn 0.7071 -0.7071 -0.0000
vn 0.6087 -0.7934 -0.0000
vn 0.5000 -0.8660 -0.0000
vn 0.3826 -0.9239 -0.0000
vn 0.2591 -0.9658 -0.0000
vn 0.1307 -0.9914 -0.0000
vn 0.0654 -0.9979 -0.0000
usemtl FrontColor
s 1
f 1/1/1 2/2/1 3/3/1 4/4/1
f 1/5/2 5/6/2 6/7/2 2/8/2
f 4/9/3 7/10/3 8/11/3 9/12/3 10/13/3 11/14/3 12/15/3 13/16/3 14/17/3 15/18/3 16/19/3 17/20/3 18/21/3 19/22/3 20/23/3 5/24/3 1/25/3
f 4/26/4 3/27/4 21/28/4 22/29/4 23/30/4 24/31/4 25/32/4 7/33/4
f 26/34/5 27/35/5 21/36/5 3/37/5 2/38/5 6/39/5 28/40/5 29/41/5 30/42/5 31/43/5 32/44/5 33/45/5 34/46/5 35/47/5 36/48/5 37/49/5 38/50/5
f 26/51/6 9/52/6 8/53/6 27/54/6
f 26/55/7 38/56/8 10/57/8 9/58/7
f 38/59/8 37/60/9 11/61/9 10/62/8
f 37/63/9 36/64/10 12/65/10 11/66/9
f 36/67/10 35/68/11 13/69/11 12/70/10
f 35/71/11 34/72/12 14/73/12 13/74/11
f 34/75/12 33/76/13 15/77/13 14/78/12
f 33/79/13 32/80/14 16/81/14 15/82/13
f 32/83/14 31/84/15 17/85/15 16/86/14
f 31/87/15 30/88/16 18/89/16 17/90/15
f 30/91/16 29/92/17 19/93/17 18/94/16
f 29/95/17 28/96/18 20/97/18 19/98/17
f 28/99/18 6/100/19 5/101/19 20/102/18
f 8/103/2 39/104/2 40/105/2 27/106/2
f 39/107/3 8/11/3 7/10/3 25/108/3
f 41/109/3 39/107/3 25/108/3 24/110/3 42/111/3 43/112/3 44/113/3 45/114/3 46/115/3 47/116/3 48/117/3 49/118/3 50/119/3 51/120/3 52/121/3 53/122/3 54/123/3
f 40/124/20 39/125/20 41/126/20 55/127/20
f 23/128/21 56/129/21 42/130/21 24/131/21
f 23/132/5 56/133/5 57/134/5
f 23/132/5 22/135/5 40/136/5 58/137/5 59/138/5 60/139/5 61/140/5 62/141/5 63/142/5 64/143/5 65/144/5 66/145/5 67/146/5 68/147/5 69/148/5 70/149/5 71/150/5 56/133/5
f 27/35/5 40/136/5 22/135/5 21/36/5
f 41/151/22 54/152/23 59/153/23 58/154/22
f 54/155/23 53/156/24 61/157/24 60/158/25 59/159/23
f 53/160/24 52/161/26 62/162/26 61/163/24
f 52/164/26 51/165/27 63/166/27 62/167/26
f 51/168/27 50/169/28 64/170/28 63/171/27
f 50/172/28 49/173/29 65/174/29 64/175/28
f 49/176/29 48/177/30 66/178/30 65/179/29
f 48/180/30 47/181/31 67/182/31 66/183/30
f 47/184/31 46/185/32 68/186/32 67/187/31
f 46/188/32 45/189/33 69/190/33 68/191/32
f 45/192/33 44/193/34 70/194/34 69/195/33
f 44/196/34 43/197/35 71/198/35 70/199/34
f 43/200/2 42/201/2 56/202/2 71/203/2
f 57/204/2 56/202/2 42/201/2
